<mxfile host="app.diagrams.net" modified="2024-06-26T12:32:15.937Z" agent="Mozilla/5.0 (Windows NT 10.0; Win64; x64) AppleWebKit/537.36 (KHTML, like Gecko) Chrome/126.0.0.0 Safari/537.36" etag="Ntj2Q9bywBL3pai1wx1r" version="21.8.0" type="device">
  <diagram name="Page-1" id="13jxI1L9Yx6jpZUjijWF">
    <mxGraphModel dx="412" dy="1318" grid="1" gridSize="10" guides="1" tooltips="1" connect="1" arrows="1" fold="1" page="1" pageScale="1" pageWidth="850" pageHeight="1100" math="0" shadow="0">
      <root>
        <mxCell id="0" />
        <mxCell id="1" parent="0" />
        <mxCell id="u_wH7tUUsJqZgx_838mm-10" style="edgeStyle=orthogonalEdgeStyle;rounded=0;orthogonalLoop=1;jettySize=auto;html=1;exitX=0.5;exitY=0;exitDx=0;exitDy=0;exitPerimeter=0;" edge="1" parent="1" source="u_wH7tUUsJqZgx_838mm-1" target="u_wH7tUUsJqZgx_838mm-9">
          <mxGeometry relative="1" as="geometry" />
        </mxCell>
        <mxCell id="u_wH7tUUsJqZgx_838mm-1" value="tNOUN Contract &lt;br&gt;(ERC721)&amp;nbsp;" style="shape=note;whiteSpace=wrap;html=1;backgroundOutline=1;darkOpacity=0.05;" vertex="1" parent="1">
          <mxGeometry x="250" y="80" width="150" height="300" as="geometry" />
        </mxCell>
        <mxCell id="u_wH7tUUsJqZgx_838mm-2" value="fNOUN Contract&lt;br&gt;(ERC1155)" style="shape=note;whiteSpace=wrap;html=1;backgroundOutline=1;darkOpacity=0.05;" vertex="1" parent="1">
          <mxGeometry x="550" y="80" width="150" height="310" as="geometry" />
        </mxCell>
        <mxCell id="u_wH7tUUsJqZgx_838mm-4" value="Contracts" style="rounded=1;whiteSpace=wrap;html=1;" vertex="1" parent="1">
          <mxGeometry x="310" y="-390" width="330" height="30" as="geometry" />
        </mxCell>
        <mxCell id="u_wH7tUUsJqZgx_838mm-35" style="edgeStyle=orthogonalEdgeStyle;rounded=0;orthogonalLoop=1;jettySize=auto;html=1;exitX=1;exitY=1;exitDx=0;exitDy=0;exitPerimeter=0;" edge="1" parent="1" source="u_wH7tUUsJqZgx_838mm-5" target="u_wH7tUUsJqZgx_838mm-1">
          <mxGeometry relative="1" as="geometry" />
        </mxCell>
        <mxCell id="u_wH7tUUsJqZgx_838mm-5" value="Noun Owner" style="shape=image;verticalLabelPosition=bottom;verticalAlign=top;html=1;outlineConnect=0;labelBackgroundColor=default;aspect=fixed;perimeter=ellipsePerimeter;shadow=0;dashed=0;spacingTop=3;image=img/lib/active_directory/user.svg;" vertex="1" parent="1">
          <mxGeometry x="30" y="150" width="40" height="60" as="geometry" />
        </mxCell>
        <mxCell id="u_wH7tUUsJqZgx_838mm-6" value="Resolver Contract Deployed &lt;br&gt;on Base for Attestation Service" style="text;html=1;align=center;verticalAlign=middle;resizable=0;points=[];autosize=1;strokeColor=none;fillColor=none;" vertex="1" parent="1">
          <mxGeometry x="235" y="380" width="190" height="40" as="geometry" />
        </mxCell>
        <mxCell id="u_wH7tUUsJqZgx_838mm-7" value="External Contract Links &lt;br&gt;with Resolver Contract" style="text;html=1;align=center;verticalAlign=middle;resizable=0;points=[];autosize=1;strokeColor=none;fillColor=none;" vertex="1" parent="1">
          <mxGeometry x="550" y="390" width="150" height="40" as="geometry" />
        </mxCell>
        <mxCell id="u_wH7tUUsJqZgx_838mm-9" value="Attestation on&lt;br&gt;Base" style="shape=card;whiteSpace=wrap;html=1;" vertex="1" parent="1">
          <mxGeometry x="285" y="-182" width="80" height="100" as="geometry" />
        </mxCell>
        <mxCell id="u_wH7tUUsJqZgx_838mm-11" style="edgeStyle=orthogonalEdgeStyle;rounded=0;orthogonalLoop=1;jettySize=auto;html=1;exitX=0.5;exitY=0;exitDx=0;exitDy=0;exitPerimeter=0;entryX=0;entryY=0;entryDx=0;entryDy=65;entryPerimeter=0;" edge="1" parent="1" source="u_wH7tUUsJqZgx_838mm-5" target="u_wH7tUUsJqZgx_838mm-9">
          <mxGeometry relative="1" as="geometry" />
        </mxCell>
        <mxCell id="u_wH7tUUsJqZgx_838mm-13" value="Attest" style="text;html=1;align=center;verticalAlign=middle;resizable=0;points=[];autosize=1;strokeColor=none;fillColor=none;" vertex="1" parent="1">
          <mxGeometry x="115" y="-147" width="50" height="30" as="geometry" />
        </mxCell>
        <mxCell id="u_wH7tUUsJqZgx_838mm-20" value="" style="html=1;shadow=0;dashed=0;align=center;verticalAlign=middle;shape=mxgraph.arrows2.twoWayArrow;dy=0.65;dx=22;" vertex="1" parent="1">
          <mxGeometry x="80" y="150" width="170" height="30" as="geometry" />
        </mxCell>
        <mxCell id="u_wH7tUUsJqZgx_838mm-21" value="Transfer Noun" style="text;html=1;align=center;verticalAlign=middle;resizable=0;points=[];autosize=1;strokeColor=none;fillColor=none;" vertex="1" parent="1">
          <mxGeometry x="115" y="130" width="100" height="30" as="geometry" />
        </mxCell>
        <mxCell id="u_wH7tUUsJqZgx_838mm-22" value="Mint tNoun" style="text;html=1;align=center;verticalAlign=middle;resizable=0;points=[];autosize=1;strokeColor=none;fillColor=none;" vertex="1" parent="1">
          <mxGeometry x="120" y="165" width="80" height="30" as="geometry" />
        </mxCell>
        <mxCell id="u_wH7tUUsJqZgx_838mm-26" value="Set Limits to fNoun" style="text;html=1;align=center;verticalAlign=middle;resizable=0;points=[];autosize=1;strokeColor=none;fillColor=none;" vertex="1" parent="1">
          <mxGeometry x="420" y="135" width="120" height="30" as="geometry" />
        </mxCell>
        <mxCell id="u_wH7tUUsJqZgx_838mm-29" style="edgeStyle=orthogonalEdgeStyle;rounded=0;orthogonalLoop=1;jettySize=auto;html=1;exitX=0;exitY=0.3333333333333333;exitDx=0;exitDy=0;exitPerimeter=0;entryX=1;entryY=0.144;entryDx=0;entryDy=0;entryPerimeter=0;" edge="1" parent="1" source="u_wH7tUUsJqZgx_838mm-28" target="u_wH7tUUsJqZgx_838mm-2">
          <mxGeometry relative="1" as="geometry">
            <mxPoint x="760" y="147.66666666666652" as="targetPoint" />
          </mxGeometry>
        </mxCell>
        <mxCell id="u_wH7tUUsJqZgx_838mm-28" value="Users" style="shape=image;verticalLabelPosition=bottom;verticalAlign=top;html=1;outlineConnect=0;labelBackgroundColor=default;aspect=fixed;perimeter=ellipsePerimeter;shadow=0;dashed=0;spacingTop=3;image=img/lib/active_directory/users.svg;" vertex="1" parent="1">
          <mxGeometry x="780" y="105" width="30" height="60" as="geometry" />
        </mxCell>
        <mxCell id="u_wH7tUUsJqZgx_838mm-30" value="Buy fNoun&amp;nbsp;" style="text;html=1;align=center;verticalAlign=middle;resizable=0;points=[];autosize=1;strokeColor=none;fillColor=none;" vertex="1" parent="1">
          <mxGeometry x="710" y="100" width="80" height="30" as="geometry" />
        </mxCell>
        <mxCell id="u_wH7tUUsJqZgx_838mm-31" style="edgeStyle=orthogonalEdgeStyle;rounded=0;orthogonalLoop=1;jettySize=auto;html=1;exitX=0.75;exitY=0.1;exitDx=0;exitDy=0;exitPerimeter=0;entryX=0;entryY=0;entryDx=60;entryDy=0;entryPerimeter=0;" edge="1" parent="1" source="u_wH7tUUsJqZgx_838mm-5" target="u_wH7tUUsJqZgx_838mm-2">
          <mxGeometry relative="1" as="geometry">
            <Array as="points">
              <mxPoint x="60" y="10" />
              <mxPoint x="660" y="10" />
            </Array>
          </mxGeometry>
        </mxCell>
        <mxCell id="u_wH7tUUsJqZgx_838mm-32" value="Withdraw Base" style="text;html=1;align=center;verticalAlign=middle;resizable=0;points=[];autosize=1;strokeColor=none;fillColor=none;" vertex="1" parent="1">
          <mxGeometry x="170" y="-22" width="100" height="30" as="geometry" />
        </mxCell>
        <mxCell id="u_wH7tUUsJqZgx_838mm-33" value="" style="shape=flexArrow;endArrow=classic;startArrow=classic;html=1;rounded=0;exitX=1;exitY=0.196;exitDx=0;exitDy=0;exitPerimeter=0;" edge="1" parent="1">
          <mxGeometry width="100" height="100" relative="1" as="geometry">
            <mxPoint x="400.0000000000002" y="169.99999999999994" as="sourcePoint" />
            <mxPoint x="550" y="172" as="targetPoint" />
          </mxGeometry>
        </mxCell>
        <mxCell id="u_wH7tUUsJqZgx_838mm-34" value="Interacts" style="text;html=1;align=center;verticalAlign=middle;resizable=0;points=[];autosize=1;strokeColor=none;fillColor=none;" vertex="1" parent="1">
          <mxGeometry x="440" y="170" width="70" height="30" as="geometry" />
        </mxCell>
        <mxCell id="u_wH7tUUsJqZgx_838mm-36" style="edgeStyle=orthogonalEdgeStyle;rounded=0;orthogonalLoop=1;jettySize=auto;html=1;exitX=0;exitY=0;exitDx=150;exitDy=30;exitPerimeter=0;entryX=1;entryY=0.5;entryDx=0;entryDy=0;entryPerimeter=0;" edge="1" parent="1" source="u_wH7tUUsJqZgx_838mm-1" target="u_wH7tUUsJqZgx_838mm-9">
          <mxGeometry relative="1" as="geometry" />
        </mxCell>
        <mxCell id="u_wH7tUUsJqZgx_838mm-37" value="Withdraw Noun" style="text;html=1;align=center;verticalAlign=middle;resizable=0;points=[];autosize=1;strokeColor=none;fillColor=none;" vertex="1" parent="1">
          <mxGeometry x="110" y="230" width="110" height="30" as="geometry" />
        </mxCell>
        <mxCell id="u_wH7tUUsJqZgx_838mm-39" value="" style="endArrow=classic;html=1;rounded=0;exitX=0.006;exitY=0.787;exitDx=0;exitDy=0;exitPerimeter=0;entryX=0;entryY=1;entryDx=0;entryDy=0;entryPerimeter=0;" edge="1" parent="1" source="u_wH7tUUsJqZgx_838mm-1" target="u_wH7tUUsJqZgx_838mm-5">
          <mxGeometry width="50" height="50" relative="1" as="geometry">
            <mxPoint x="210" y="220" as="sourcePoint" />
            <mxPoint x="260" y="170" as="targetPoint" />
            <Array as="points">
              <mxPoint x="30" y="316" />
            </Array>
          </mxGeometry>
        </mxCell>
        <mxCell id="u_wH7tUUsJqZgx_838mm-40" value="Transfer Noun" style="text;html=1;align=center;verticalAlign=middle;resizable=0;points=[];autosize=1;strokeColor=none;fillColor=none;" vertex="1" parent="1">
          <mxGeometry x="70" y="320" width="100" height="30" as="geometry" />
        </mxCell>
        <mxCell id="u_wH7tUUsJqZgx_838mm-41" value="" style="endArrow=classic;html=1;rounded=0;entryX=0.004;entryY=0.806;entryDx=0;entryDy=0;entryPerimeter=0;exitX=1.011;exitY=0.825;exitDx=0;exitDy=0;exitPerimeter=0;" edge="1" parent="1" source="u_wH7tUUsJqZgx_838mm-1" target="u_wH7tUUsJqZgx_838mm-2">
          <mxGeometry width="50" height="50" relative="1" as="geometry">
            <mxPoint x="210" y="220" as="sourcePoint" />
            <mxPoint x="260" y="170" as="targetPoint" />
          </mxGeometry>
        </mxCell>
        <mxCell id="u_wH7tUUsJqZgx_838mm-42" value="Burn fNouns" style="text;html=1;align=center;verticalAlign=middle;resizable=0;points=[];autosize=1;strokeColor=none;fillColor=none;" vertex="1" parent="1">
          <mxGeometry x="425" y="328" width="90" height="30" as="geometry" />
        </mxCell>
        <mxCell id="u_wH7tUUsJqZgx_838mm-43" value="" style="endArrow=classic;html=1;rounded=0;entryX=0;entryY=1;entryDx=0;entryDy=0;entryPerimeter=0;exitX=1.01;exitY=0.806;exitDx=0;exitDy=0;exitPerimeter=0;" edge="1" parent="1" source="u_wH7tUUsJqZgx_838mm-2" target="u_wH7tUUsJqZgx_838mm-28">
          <mxGeometry width="50" height="50" relative="1" as="geometry">
            <mxPoint x="210" y="220" as="sourcePoint" />
            <mxPoint x="260" y="170" as="targetPoint" />
            <Array as="points">
              <mxPoint x="780" y="330" />
            </Array>
          </mxGeometry>
        </mxCell>
        <mxCell id="u_wH7tUUsJqZgx_838mm-44" value="Distribute Base" style="text;html=1;align=center;verticalAlign=middle;resizable=0;points=[];autosize=1;strokeColor=none;fillColor=none;" vertex="1" parent="1">
          <mxGeometry x="720" y="328" width="100" height="30" as="geometry" />
        </mxCell>
      </root>
    </mxGraphModel>
  </diagram>
</mxfile>
